<svg xmlns="http://www.w3.org/2000/svg" viewBox="-6.00 -69.99 584.03 97.19" role="img" aria-label="Rozkoduj MCP"><g transform="translate(-18.561 -70.354) scale(2.6515)" fill="none"><rect x="10" y="2.8" width="2" height="26" fill="#0085ff" /><rect x="7" y="9.8" width="8" height="12" fill="#0085ff" /><ellipse cx="23.63" cy="8.5" rx="3.2" ry="5" stroke="#0085ff" stroke-width="2.2" /><path d="M20.63 20.5 L23.63 18 L23.63 28" stroke="#0085ff" stroke-width="2.2" stroke-linejoin="round" stroke-linecap="round" /></g><g transform="translate(82.70 0.00) scale(0.08000)"><path d="M130.50-365.50L333.50-365.50Q391-365.50 428-397.25Q465-429 465-489.50Q465-528.50 448.75-556.25Q432.50-584 396-598.75Q359.50-613.50 299-613.50L134.50-613.50L153-670L363-670Q446-670 497-647.25Q548-624.50 571.25-586.25Q594.50-548 594.50-501.50Q594.50-457 574.25-421.75Q554-386.50 513.75-363.75Q473.50-341 414-334L414-336.50Q456.50-334.50 481.50-323.50Q506.50-312.50 521.75-290.50Q537-268.50 549-232L591.50-105Q603-72 613.75-57Q624.50-42 638.50-38.50Q652.50-35 673.50-35L673.50 1Q613 5.50 575.50 4Q538 2.50 516-7.50Q494-17.50 481.75-37.25Q469.50-57 460-89.50L422-214Q411-251.50 400-272.25Q389-293 372.50-301Q356-309 328.50-309L150-309L130.50-365.50M37-670L240.50-670L240.50-49L315.50-21L315.50 0L37 0L37-21L111.50-49L111.50-621L37-649L37-670M934-34Q963.50-34 986.25-50.25Q1009-66.50 1022-102.25Q1035-138 1035-196.50Q1035-262 1022.25-306.25Q1009.50-350.50 985.75-373.25Q962-396 928.50-396Q899.50-396 876.75-380Q854-364 841-328.25Q828-292.50 828-233.50Q828-168.50 840.50-124Q853-79.50 877-56.75Q901-34 934-34M928.50 12Q860 12 809.50-16Q759-44 731.50-94Q704-144 704-209Q704-277 733.50-329.75Q763-382.50 815-412.50Q867-442.50 934-442.50Q1003-442.50 1053.50-414.50Q1104-386.50 1131.50-336.75Q1159-287 1159-221Q1159-153.50 1129.25-100.75Q1099.50-48 1047.75-18Q996 12 928.50 12M1575.50 0L1220 0L1220-16L1469-411L1522-387.50L1260-380.50L1320.50-416.50L1247-289.50L1219-289.50L1243-442.50L1258.50-442.50L1299.50-430L1594-430L1594-414L1343.50-18L1292.50-42.50L1535.50-50L1496.50-17L1583-144.50L1611.50-144.50L1575.50 0M2080-386.50L1904.50-232.50L1944-288L2128.50-45L2185-19.50L2185 0L1946.50 0L1946.50-19.50L1994.50-40.50L1861.50-214.50L1785-214.50L1785-263L1878.50-263L2011-387.50L1949.50-407.50L1949.50-430L2146.50-430L2146.50-407.50L2080-386.50M1821-614L1821-44L1884-19.50L1884 0L1639 0L1639-19.50L1705-45L1705-591Q1698-600.50 1687.50-609Q1677-617.50 1662.75-625.75Q1648.50-634 1629-642L1629-660L1814.50-711.50L1828.50-711.50L1821-614M2438-34Q2467.50-34 2490.25-50.25Q2513-66.50 2526-102.25Q2539-138 2539-196.50Q2539-262 2526.25-306.25Q2513.50-350.50 2489.75-373.25Q2466-396 2432.50-396Q2403.50-396 2380.75-380Q2358-364 2345-328.25Q2332-292.50 2332-233.50Q2332-168.50 2344.50-124Q2357-79.50 2381-56.75Q2405-34 2438-34M2432.50 12Q2364 12 2313.50-16Q2263-44 2235.50-94Q2208-144 2208-209Q2208-277 2237.50-329.75Q2267-382.50 2319-412.50Q2371-442.50 2438-442.50Q2507-442.50 2557.50-414.50Q2608-386.50 2635.50-336.75Q2663-287 2663-221Q2663-153.50 2633.25-100.75Q2603.50-48 2551.75-18Q2500 12 2432.50 12M3056-68L3056-301Q3056-341 3032.75-367.75Q3009.50-394.50 2964-394.50Q2928.50-394.50 2903-375.50Q2877.50-356.50 2864.25-318.25Q2851-280 2851-223Q2851-168 2865.75-131Q2880.50-94 2907-75.50Q2933.50-57 2968.50-57Q2997.50-57 3026-66Q3054.50-75 3081-94.50L3081-53Q3049.50-33.50 3026-20.75Q3002.50-8 2984-0.75Q2965.50 6.50 2949.25 9.25Q2933 12 2916.50 12Q2855 12 2812.50-14Q2770-40 2748.50-86.50Q2727-133 2727-193Q2727-253.50 2747.25-299.75Q2767.50-346 2802.25-377.75Q2837-409.50 2880.75-426Q2924.50-442.50 2972-442.50Q2997.50-442.50 3021.50-438.50Q3045.50-434.50 3070.75-426.25Q3096-418 3126-404L3056-387.50L3056-599Q3049-608 3039.25-615.75Q3029.50-623.50 3016.75-630.50Q3004-637.50 2987.50-645L2987.50-662L3165-711.50L3179-711.50L3172-613.50L3172-79Q3177.50-73.50 3184.75-68Q3192-62.50 3200.50-57.75Q3209-53 3218-49.25Q3227-45.50 3236.50-43L3236.50-25L3082 11L3068 11L3056-68M3438.50-375.50L3438.50-146Q3438.50-120.50 3445.50-105.75Q3452.50-91 3469.25-84.50Q3486-78 3514.50-78Q3544-78 3570.25-87.50Q3596.50-97 3609.50-112.50L3629.50-91Q3600.50-60 3577-39.75Q3553.50-19.50 3532.50-8.25Q3511.50 3 3490.50 7.50Q3469.50 12 3445.50 12Q3383 12 3352.75-27Q3322.50-66 3322.50-144.50L3322.50-371.50L3257-402.50L3257-425.50L3444-439L3438.50-375.50M3619 9L3605 9L3595-88.50L3595-373.50L3535.50-402.50L3535.50-425.50L3718-439L3711-373.50L3711-79Q3716.50-73.50 3723.75-68Q3731-62.50 3739.75-57.75Q3748.50-53 3757.50-49.25Q3766.50-45.50 3775.50-43L3775.50-25L3619 9M3926-563.50Q3893.50-563.50 3872.75-584.75Q3852-606 3852-638Q3852-669.50 3872.75-690.50Q3893.50-711.50 3926-711.50Q3959.50-711.50 3980-690.50Q4000.50-669.50 4000.50-638Q4000.50-606 3980-584.75Q3959.50-563.50 3926-563.50M3871 65L3871-336Q3864.50-344.50 3853.75-352.50Q3843-360.50 3830-367.50Q3817-374.50 3803-380L3803-398L3974-442.50L3992-442.50L3987-346.50L3987 20.50Q3987 53 3984 76.75Q3981 100.50 3971.25 120.75Q3961.50 141 3942.25 161.25Q3923 181.50 3890.50 206.25Q3858 231 3810 265L3786.50 238Q3815 207 3832 185.50Q3849 164 3857.50 146Q3866 128 3868.50 109.25Q3871 90.50 3871 65" fill="#ffffff"/></g><g transform="translate(406.82 0.00) scale(0.09280)"><path d="M118-138.50Q150.50-138.50 171.75-117Q193-95.50 193-65Q193-34 171.75-12.50Q150.50 9 118 9Q85.50 9 64-12.50Q42.50-34 42.50-65Q42.50-95.50 64-117Q85.50-138.50 118-138.50" fill="#0085ff"/></g><rect x="454.27" y="-59.00" width="117.76" height="61.09" rx="11.04" fill="#0085ff"/><g transform="translate(475.61 -14.84) scale(0.03680)"><path d="M173 0L56 0L56-730L204-730L275-498Q286-463 293-434Q300-405 302-392Q304-405 311-434Q318-463 328-498L396-730L544-730L544 0L427 0L427-227Q427-277 430-336Q433-395 437-454Q441-513 446.50-566Q452-619 456-659L358-314L244-314L143-659Q148-621 153-569.50Q158-518 162.50-459.50Q167-401 170-341Q173-281 173-227" fill="#ffffff"/></g><g transform="translate(502.11 -14.84) scale(0.03680)"><path d="M304 10Q234 10 181.50-16.50Q129-43 100.50-91.50Q72-140 72-206L72-524Q72-591 100.50-639Q129-687 181.50-713.50Q234-740 304-740Q375-740 426.50-713.50Q478-687 507-639Q536-591 536-524L410-524Q410-576 382.50-603Q355-630 304-630Q253-630 225-603Q197-576 197-525L197-206Q197-155 225-127.50Q253-100 304-100Q355-100 382.50-127.50Q410-155 410-206L536-206Q536-141 507-92Q478-43 426.50-16.50Q375 10 304 10" fill="#ffffff"/></g><g transform="translate(528.61 -14.84) scale(0.03680)"><path d="M202 0L77 0L77-730L320-730Q393-730 447.50-702Q502-674 532-623.50Q562-573 562-505Q562-438 531.50-387Q501-336 447-308Q393-280 320-280L202-280L202 0M202-617L202-393L320-393Q372-393 403.50-423.50Q435-454 435-505Q435-557 403.50-587Q372-617 320-617" fill="#ffffff"/></g></svg>
